<?xml version="1.0" encoding="UTF-8"?>
<svg id="icons" xmlns="http://www.w3.org/2000/svg" viewBox="0 0 24 24">
  <defs>
    <style>
      .cls-1 {
        fill: #ebeaff;
      }

      .cls-2 {
        fill: #8c9eff;
      }
    </style>
  </defs>
  <g>
    <path class="cls-2" d="M7.48,13.89c-.17-.02-.32.02-.45.11-.13.1-.21.24-.24.4l-.21,1.42c-.06.43.06.87.35,1.21.29.33.7.52,1.14.52h.96c.33,0,.6-.27.6-.6s-.27-.6-.6-.6h-.96c-.09,0-.17-.04-.23-.1-.06-.07-.08-.15-.07-.24l.21-1.42c.05-.33-.18-.64-.51-.69Z"/>
    <path class="cls-2" d="M17.8,12.62c-.07.1-.09.21-.07.32l.13.57c.05.22.28.37.56.37h.07c.18-.02.33-.1.42-.22.07-.1.09-.21.07-.32l-.13-.56c-.05-.24-.33-.39-.63-.37-.18.02-.33.1-.42.22ZM18.43,13.62h0s0,0,0,0Z"/>
    <path class="cls-2" d="M19.46,16.65l-.28-1.91c-.05-.33-.36-.56-.69-.51-.33.05-.56.36-.51.69l.28,1.91c.05.37-.05.74-.29,1.02-.24.28-.59.44-.96.44H6.98c-.37,0-.72-.16-.96-.44-.24-.28-.35-.65-.29-1.02l1.11-7.51c.03-.2.21-.35.41-.35h9.5c.2,0,.38.15.41.35l.33,2.27c.05.33.36.56.69.51.33-.05.56-.36.51-.69l-.34-2.27c-.12-.79-.8-1.39-1.6-1.39h-1.12c-.19-1.82-1.71-3.24-3.57-3.24s-3.38,1.42-3.57,3.24h-1.25c-.8,0-1.49.6-1.6,1.39l-1.11,7.51c-.11.71.1,1.44.57,1.98.47.55,1.15.86,1.87.86h10.04c.72,0,1.4-.31,1.87-.86.47-.55.68-1.27.57-1.98ZM9.71,7.75c.18-1.15,1.17-2.03,2.36-2.03s2.18.88,2.36,2.03h-4.72Z"/>
  </g>
  <path class="cls-1" d="M13.78,14.11c.82.12,2.09.37,3.26,1.36.73.61-.01,1.72-1.63,1.8l-2.3.09c-.86.03-1.71-.31-2.25-.98-.03-.04-.05-.07-.06-.09-.46-.78.35-1.76,1.21-2.03.53-.17,1.17-.23,1.77-.15Z"/>
  <circle class="cls-2" cx="8.94" cy="10.88" r=".83"/>
  <circle class="cls-2" cx="15.29" cy="10.88" r=".83"/>
</svg>