<?xml version="1.0" encoding="UTF-8"?>
<svg id="icons" xmlns="http://www.w3.org/2000/svg" viewBox="0 0 24 24">
  <defs>
    <style>
      .cls-1 {
        fill: #ebeaff;
      }

      .cls-2 {
        fill: #8c9eff;
      }
    </style>
  </defs>
  <path class="cls-1" d="M8.46,9.67h4.05c1.51,0,2.73,1.22,2.73,2.73v.79c0,.62-.51,1.13-1.13,1.13h-5.32c-1.38,0-2.49-1.12-2.49-2.49h0c0-1.19.97-2.16,2.16-2.16Z"/>
  <g>
    <path class="cls-2" d="M5.75,13.4v-.66c0-.32-.29-.58-.64-.58s-.64.26-.64.58v.66c0,.32.29.58.64.58s.64-.26.64-.58Z"/>
    <path class="cls-2" d="M17.33,4.47H6.67c-1.22,0-2.2,1.02-2.2,2.27v1.95c0,.36.29.66.64.66s.64-.29.64-.66v-1.95c0-.53.41-.96.92-.96h10.66c.51,0,.92.43.92.96v7.55c0,.53-.41.96-.92.96H6.67c-.31,0-.6-.17-.78-.44-.09-.15-.24-.25-.41-.29-.17-.04-.34,0-.48.09-.29.19-.38.6-.2.9.41.66,1.1,1.06,1.86,1.06h2.31l-.84,1.65h-.86c-.35,0-.64.29-.64.66s.29.66.64.66h9.43c.35,0,.64-.29.64-.66s-.29-.66-.64-.66h-.96l-.84-1.65h2.42c1.22,0,2.2-1.02,2.2-2.27v-7.55c0-1.25-.99-2.27-2.2-2.27ZM9.59,18.22l.84-1.65h3.04l.84,1.65h-4.72Z"/>
    <path class="cls-2" d="M5.11,11.69c.36,0,.64-.22.64-.5v-.81c0-.28-.28-.5-.64-.5s-.64.22-.64.5v.81c0,.28.28.5.64.5Z"/>
    <path class="cls-2" d="M16.83,12.25c.35,0,.64-.29.64-.66v-3.66c0-.69-.55-1.25-1.22-1.25h-2.59c-.35,0-.64.29-.64.66s.29.66.64.66h2.52v3.6c0,.36.29.66.64.66Z"/>
  </g>
</svg>