<svg width="34" height="33" viewBox="0 0 34 33" fill="none" xmlns="http://www.w3.org/2000/svg">
<path d="M29.6806 0C30.648 0 31.5758 0.384297 32.2598 1.06835C32.9439 1.7524 33.3282 2.68018 33.3282 3.64757V29.1806C33.3282 30.148 32.9439 31.0758 32.2598 31.7598C31.5758 32.4439 30.648 32.8282 29.6806 32.8282H4.14757C3.18018 32.8282 2.2524 32.4439 1.56835 31.7598C0.884297 31.0758 0.5 30.148 0.5 29.1806V3.64757C0.5 2.68018 0.884297 1.7524 1.56835 1.06835C2.2524 0.384297 3.18018 0 4.14757 0H29.6806ZM28.7687 28.2687V18.6026C28.7687 17.0258 28.1423 15.5135 27.0273 14.3985C25.9123 13.2835 24.4 12.6571 22.8232 12.6571C21.2729 12.6571 19.4674 13.6055 18.592 15.028V13.0036H13.5036V28.2687H18.592V19.2774C18.592 17.8731 19.7227 16.7241 21.127 16.7241C21.8042 16.7241 22.4537 16.9931 22.9325 17.472C23.4113 17.9508 23.6803 18.6003 23.6803 19.2774V28.2687H28.7687ZM7.57629 10.1403C8.38891 10.1403 9.16824 9.81745 9.74284 9.24284C10.3174 8.66824 10.6403 7.88891 10.6403 7.07629C10.6403 5.38017 9.27242 3.99409 7.57629 3.99409C6.75884 3.99409 5.97487 4.31882 5.39685 4.89685C4.81882 5.47487 4.49409 6.25884 4.49409 7.07629C4.49409 8.77242 5.88017 10.1403 7.57629 10.1403ZM10.1114 28.2687V13.0036H5.05947V28.2687H10.1114Z" fill="#332E2E"/>
</svg>
