<svg width="33" height="33" viewBox="0 0 33 33" fill="none" xmlns="http://www.w3.org/2000/svg">
<path d="M16.5 0L10.2795 4.02273H4.95V7.43182L1.6005 9.63068C0.6435 10.2273 0 11.3011 0 12.5455V29.5909C0 30.4951 0.347677 31.3622 0.966547 32.0015C1.58542 32.6408 2.42479 33 3.3 33H29.7C31.5315 33 33 31.483 33 29.5909V12.5455C33 11.3011 32.3565 10.2273 31.3995 9.63068L28.05 7.43182V4.02273H22.7205M8.25 7.43182H24.75V15.75L16.5 21.0682L8.25 15.75M9.9 9.13636V11.6932H23.1V9.13636M4.95 11.4886V13.6193L3.3 12.5455M28.05 11.4886L29.7 12.5455L28.05 13.6193M9.9 13.3977V15.9545H23.1V13.3977H9.9Z" fill="#332E2E"/>
</svg>
