<svg width="44" height="33" viewBox="0 0 44 33" fill="none" xmlns="http://www.w3.org/2000/svg">
<path d="M14.6641 5.21875C17.5814 5.21875 20.3793 6.37768 22.4422 8.44058C24.5051 10.5035 25.6641 13.3014 25.6641 16.2188C25.6641 19.1361 24.5051 21.934 22.4422 23.9969C20.3793 26.0598 17.5814 27.2188 14.6641 27.2188C11.7467 27.2188 8.94879 26.0598 6.88589 23.9969C4.82299 21.934 3.66406 19.1361 3.66406 16.2188C3.66406 13.3014 4.82299 10.5035 6.88589 8.44058C8.94879 6.37768 11.7467 5.21875 14.6641 5.21875ZM31.1641 7.05208C33.9141 7.05208 35.7474 11.1569 35.7474 16.2188C35.7474 21.2806 33.9141 25.3854 31.1641 25.3854C28.4141 25.3854 26.5807 21.2806 26.5807 16.2188C26.5807 11.1569 28.4141 7.05208 31.1641 7.05208ZM38.4974 7.96875C39.1941 7.96875 39.8027 9.48492 40.1107 12.0864L40.1969 12.8986L40.2317 13.3294L40.2867 14.2351L40.3051 14.7099L40.3271 15.7018L40.3307 16.2188L40.3271 16.7357L40.3051 17.7276L40.2867 18.2043L40.2317 19.1081L40.1951 19.5389L40.1126 20.3511C39.8027 22.9544 39.1959 24.4688 38.4974 24.4688C37.8007 24.4688 37.1921 22.9526 36.8841 20.3511L36.7979 19.5389C36.7853 19.3954 36.7737 19.2518 36.7631 19.1081L36.7081 18.2024C36.701 18.0442 36.6949 17.8859 36.6897 17.7276L36.6677 16.7357V15.7018L36.6897 14.7099L36.7081 14.2332L36.7631 13.3294L36.7997 12.8986L36.8822 12.0864C37.1921 9.48308 37.7989 7.96875 38.4974 7.96875Z" fill="#332E2E"/>
</svg>
