<svg width="34" height="35" viewBox="0 0 34 35" fill="none" xmlns="http://www.w3.org/2000/svg">
<g clip-path="url(#clip0_3209_2696)">
<path d="M24.8367 20.9117C24.8367 22.3397 25.243 22.9092 26.3055 22.9092C28.6736 22.9092 30.1815 19.8917 30.1815 14.8733C30.1815 7.20287 24.5919 3.53087 17.6134 3.53087C10.4343 3.53087 3.90459 8.34527 3.90459 17.4437C3.90459 26.1341 9.61659 30.8669 18.3886 30.8669C21.367 30.8669 23.3662 30.5405 26.4245 29.5205L27.0807 32.2524C24.0615 33.2333 20.8349 33.5172 18.3478 33.5172C6.84219 33.5172 0.679688 27.1932 0.679688 17.442C0.679688 7.60917 7.82139 0.917969 17.6542 0.917969C27.895 0.917969 33.3197 7.03797 33.3197 14.5452C33.3197 20.91 31.3222 25.7652 25.039 25.7652C22.1813 25.7652 20.3062 24.6228 20.0614 22.0915C19.327 24.9067 17.3686 25.7652 14.7149 25.7652C11.1653 25.7652 8.18689 23.0299 8.18689 17.5236C8.18689 11.9748 10.7998 8.54757 15.4918 8.54757C17.9806 8.54757 19.531 9.52677 20.2212 11.0772L21.4061 8.91477H24.8333V20.9117H24.8367ZM19.82 15.5261C19.82 13.2838 18.1455 12.3437 16.7583 12.3437C15.2487 12.3437 13.5776 13.566 13.5776 17.1581C13.5776 20.0141 14.8424 21.6053 16.7583 21.6053C18.1047 21.6053 19.82 20.7485 19.82 18.3821V15.5261Z" fill="#332E2E"/>
</g>
<defs>
<clipPath id="clip0_3209_2696">
<rect width="34" height="34" fill="white" transform="translate(0 0.21875)"/>
</clipPath>
</defs>
</svg>
