<?xml version="1.0" encoding="UTF-8"?>
<svg id="icons" xmlns="http://www.w3.org/2000/svg" viewBox="0 0 24 24">
  <defs>
    <style>
      .cls-1 {
        fill: #ebeaff;
      }

      .cls-2 {
        fill: #8c9eff;
      }
    </style>
  </defs>
  <path class="cls-1" d="M12.33,11.93c-.89-.82-1.3-.13-1.91-.86-.91-1.1.31-2.17.67-2.48.88-.76,2.39-.5,3.43.64s1.18,2.69.33,3.47c-.67.61-1.38.27-2.51-.77Z"/>
  <g>
    <path class="cls-2" d="M7.89,13.9c-.79-1.71-.42-3.76.91-5.1.6-.6,1.35-1.02,2.18-1.21.32-.07.51-.39.44-.71-.04-.15-.13-.28-.26-.37-.13-.08-.29-.11-.44-.07-1.04.24-1.99.77-2.74,1.52-1.68,1.68-2.14,4.26-1.15,6.42.1.21.31.34.53.34.08,0,.17-.02.25-.05.29-.14.42-.49.29-.78Z"/>
    <path class="cls-2" d="M17.16,9.53c-.14-.29-.49-.41-.79-.28-.29.14-.42.49-.28.78.83,1.74.48,3.82-.87,5.18-.85.85-1.99,1.33-3.21,1.33s-2.35-.47-3.23-1.35c-.23-.23-.6-.23-.83,0-.23.23-.23.6.02.86,1.07,1.07,2.51,1.66,4.04,1.66s2.97-.59,4.04-1.66c1.71-1.71,2.15-4.33,1.1-6.52Z"/>
    <path class="cls-2" d="M15.22,8.8c.11.11.26.17.42.17s.3-.06.42-.17c.23-.23.23-.6,0-.83-.23-.23-.48-.44-.73-.62-.26-.19-.63-.12-.82.14-.19.27-.12.63.14.82.21.15.4.31.58.49Z"/>
    <path class="cls-2" d="M12.11,6.85c-.04.32.18.62.51.66.31.04.62.11.91.22.06.02.13.03.2.03.25,0,.47-.16.55-.39.05-.15.04-.31-.02-.45s-.19-.25-.33-.3c-.37-.13-.76-.22-1.15-.28-.32-.04-.62.18-.66.51Z"/>
    <path class="cls-2" d="M11.81,5.76c.32,0,.59-.26.59-.59v-2.41c0-.32-.26-.59-.59-.59s-.59.26-.59.59v2.41c0,.32.26.59.59.59Z"/>
    <path class="cls-2" d="M11.81,18.24c-.32,0-.59.26-.59.59v2.41c0,.32.26.59.59.59s.59-.26.59-.59v-2.41c0-.32-.26-.59-.59-.59Z"/>
    <path class="cls-2" d="M5.76,12.01c0-.32-.26-.59-.59-.59h-2.41c-.32,0-.59.26-.59.59s.26.59.59.59h2.41c.32,0,.59-.26.59-.59Z"/>
    <path class="cls-2" d="M21.24,11.42h-2.41c-.32,0-.59.26-.59.59s.26.59.59.59h2.41c.32,0,.59-.26.59-.59s-.26-.59-.59-.59Z"/>
    <path class="cls-2" d="M17.27,16.55c-.23-.23-.6-.23-.83,0-.23.23-.23.6,0,.83l1.71,1.71c.11.11.26.17.42.17s.31-.06.42-.17c.23-.23.23-.6,0-.83l-1.71-1.71Z"/>
    <path class="cls-2" d="M6.64,7.58c.11.11.26.17.42.17s.3-.06.42-.17c.23-.23.23-.6,0-.83l-1.71-1.71c-.23-.23-.6-.23-.83,0s-.23.6,0,.83l1.71,1.71Z"/>
    <path class="cls-2" d="M16.71,7.6c.16,0,.3-.06.42-.17l1.71-1.71c.23-.23.23-.6,0-.83-.22-.22-.61-.22-.83,0l-1.71,1.71c-.23.23-.23.6,0,.83.11.11.26.17.42.17Z"/>
    <path class="cls-2" d="M6.91,16.23h0c-.16,0-.31.06-.42.17l-1.71,1.71c-.23.23-.23.6,0,.83.11.11.26.17.42.17s.31-.06.42-.17l1.71-1.71c.23-.23.23-.6,0-.83-.11-.11-.26-.17-.42-.17Z"/>
    <path class="cls-2" d="M12.15,14.1c-.87.19-1.79-.18-2.27-.94-.22-.34-.33-.73-.34-1.13,0-.28-.23-.51-.52-.51h0c-.28,0-.51.24-.51.52,0,.59.18,1.17.5,1.68.58.9,1.61,1.46,2.68,1.46.23,0,.46-.02.68-.07.13-.03.25-.11.32-.23.07-.12.1-.25.07-.39-.06-.28-.34-.46-.62-.39Z"/>
  </g>
</svg>