<?xml version="1.0" encoding="UTF-8"?>
<svg id="icons" xmlns="http://www.w3.org/2000/svg" viewBox="0 0 24 24">
  <defs>
    <style>
      .cls-1 {
        fill: #ebeaff;
      }

      .cls-2 {
        fill: #8c9eff;
      }
    </style>
  </defs>
  <path class="cls-1" d="M13.45,8.53l.31.38c.46.56,1.09,1,1.82,1.24h0c.71.24,1.33.43,1.33,1.06,0,.3-.14.58-.39.79-.27.23-.74.53-1.58.81-3.89,1.33-7.31-2.57-5.11-3.35.47-.17.9-.41,1.25-.73l.5-.46c.5-.46,1.51-.32,1.88.26Z"/>
  <g>
    <path class="cls-2" d="M20.17,9.98c-.11-.37-.4-.65-.75-.76l-1.15-.35c-.15-.05-.31-.03-.45.05-.14.08-.25.21-.29.37-.09.32.09.66.4.76l1.07.33-2.68,3.64c-.08.11-.12.25-.12.39l.15,4.59-4.14-1.54c-.13-.05-.28-.05-.41,0l-4.11,1.53.12-4.58c0-.14-.04-.28-.12-.39l-2.68-3.64,4.21-1.29c.13-.04.25-.13.33-.25l2.46-3.77,1.08,1.65c.09.14.23.23.39.26.16.03.32,0,.45-.1.27-.19.33-.57.15-.84l-1.13-1.73c-.21-.32-.56-.51-.93-.51s-.73.19-.94.51l-2.4,3.67-4.08,1.25c-.36.11-.64.4-.75.76-.11.36-.05.76.18,1.07l2.6,3.52-.12,4.45c-.01.38.16.75.46.98.3.23.7.29,1.05.16l4-1.49,4,1.49c.12.05.25.07.38.07.24,0,.47-.08.67-.23.3-.23.47-.59.46-.98l-.12-4.45,2.6-3.52c.22-.31.29-.7.18-1.07Z"/>
    <path class="cls-2" d="M14.86,8.38l1.23.65c.05.03.11.05.17.06.03,0,.07,0,.1,0,.22,0,.44-.13.54-.34.15-.3.03-.67-.26-.82l-1.24-.65c-.14-.07-.3-.09-.45-.04-.16.05-.28.16-.35.31-.15.3-.03.67.26.82Z"/>
    <path class="cls-2" d="M9.42,16.17h.02c.32,0,.58-.26.6-.58l.08-1.61c0-.29-.08-.58-.25-.81l-.43-.58c-.1-.13-.24-.22-.4-.24-.16-.02-.32.02-.44.13-.25.21-.3.59-.11.85l.44.61-.08,1.59c-.02.34.24.62.58.64ZM9.44,15.92h0s0,0,0,0Z"/>
  </g>
</svg>