<?xml version="1.0" encoding="UTF-8"?>
<svg xmlns="http://www.w3.org/2000/svg" version="1.1" viewBox="0 0 1670 616">
  <defs>
    <style>
      .cls-1 {
        fill: #d9ffb6;
      }

      .cls-2 {
        fill: #332e2e;
      }
    </style>
  </defs>
  <!-- Generator: Adobe Illustrator 28.7.1, SVG Export Plug-In . SVG Version: 1.2.0 Build 142)  -->
  <g>
    <g id="Layer_1">
      <g>
        <g>
          <rect class="cls-1" x="67" y="67.4" width="513.7" height="481.1" rx="26.2" ry="26.2"/>
          <g>
            <path class="cls-2" d="M398.5,270.5c-1-.8-2.3-1.3-7.9-3.6v-2c0-48.9-39.7-88.5-88.5-88.5h-72c-9.2,0-16.5,7.4-16.5,16.5v83.5c0,9.2,7.4,16.5,16.5,16.5s.5,0,.5,0h119.6c-9.9,17-28,27.7-48.1,27.7h-72c-9.2,0-16.5,7.4-16.5,16.5v87.8c0,9.2,7.4,16.5,16.5,16.5h131c43.5,0,78.9-39.7,78.9-88.5v-4.3c0-32.6-15.8-62.3-41.5-77.9v-.3ZM357.3,259.8h-110.9v-50.4h55.7c29,0,52.7,22.1,55.5,50.4h-.3ZM406.9,348.3v4.3c0,30.8-20.6,55.7-46.1,55.7h-114.5v-55h55.7c36.4,0,67.7-22.1,81.4-53.7.3,0,.5.5.8.8,14,9.9,22.6,28.2,22.6,47.8h0Z"/>
            <path class="cls-2" d="M172.1,144.8c-2.8,0-4.8,2.3-4.8,4.8v124.7c0,4.1-1,8.9-2.8,15-1.3,4.3-3.6,8.1-6.6,11.7s-2,5.9,0,8.1c3.1,3.6,5.3,7.6,6.6,12,1.8,6.1,2.8,10.9,2.8,14.8v130.3c0,2.8,2.3,4.8,4.8,4.8h12c5.9,0,10.4,4.6,10.4,10.4v7.6c0,5.9-4.6,10.4-10.4,10.4h-36.4c-2.5,0-5.1-1-7.6-3.3-2.5-2-3.8-6.1-3.8-11.7v-139.4c0-6.6-1.8-12.7-5.1-18.1-1.8-2.8-3.6-4.8-6.1-6.4-5.1-3.1-8.4-8.4-8.4-14.2v-3.3c0-5.3,3.1-10.2,7.6-13.2,4.6-3.1.8-.5,1-.8,2.5-2,4.6-4.3,6.1-6.9,1.5-2.5,2.8-5.6,3.6-8.7.8-3.1,1-5.6,1-7.6v-134.1c0-6.4,1.5-10.4,4.6-12.2s5.3-2.8,6.9-2.8h36.4c5.9,0,10.4,4.6,10.4,10.4v7.6c0,5.9-4.6,10.4-10.4,10.4h-12l.3-.5Z"/>
            <path class="cls-2" d="M463.4,144.8c-5.9,0-10.4-4.6-10.4-10.4v-7.6c0-5.9,4.6-10.4,10.4-10.4h36.4c1.8,0,4.1,1,6.9,2.8,3.1,1.8,4.6,5.9,4.6,12.2v134.1c0,2,.3,4.6,1,7.6.8,3.1,1.8,6.1,3.6,8.7s3.8,5.1,6.1,6.9c.3.3.8.5,1,.8,4.6,3.1,7.6,7.9,7.6,13.2v3.3c0,5.9-3.3,11.2-8.4,14.2-5.1,3.1-4.3,3.6-6.1,6.4-3.3,5.3-5.1,11.4-5.1,18.1v139.4c0,5.6-1.3,9.4-3.8,11.7-2.5,2-5.1,3.3-7.6,3.3h-36.4c-5.9,0-10.4-4.6-10.4-10.4v-7.6c0-5.9,4.6-10.4,10.4-10.4h12c2.8,0,4.8-2.3,4.8-4.8v-130.3c0-3.6,1-8.4,2.8-14.8,1.3-4.3,3.6-8.4,6.6-12s2-5.9,0-8.1c-3.1-3.6-5.3-7.6-6.6-11.7-1.8-5.9-2.8-10.9-2.8-15v-124.7c0-2.8-2.3-4.8-4.8-4.8h-12l.3.5Z"/>
          </g>
        </g>
        <g>
          <path class="cls-2" d="M759.2,180.6c0,32.4-21.6,46-50.6,46h-30.8v49.6h-28v-140h61.2c26.4,0,48.2,14.6,48.2,44.4ZM730.4,181.2c0-12.2-8-17.8-20.4-17.8h-32.2v36h32.6c13,0,20-6,20-18.2Z"/>
          <path class="cls-2" d="M900.4,276.2h-30.8l-11-31.2h-51.2l-11,31.2h-30l53.6-140h27.2l53.2,140ZM849,218.4l-9-25.4c-2.8-8.2-5.6-16.6-7-21.8-1.4,5.2-4.2,13.6-7,21.8l-9,25.4h32Z"/>
          <path class="cls-2" d="M1012.2,163.8h-40.2v112.4h-28v-112.4h-40.2v-27.6h108.4v27.6Z"/>
          <path class="cls-2" d="M1158,276.2h-32.2l-25-50.4h-28.2v50.4h-28v-140h65.2c26.4,0,48.2,14.6,48.2,44.4s-9,34.2-26.8,41.2l26.8,54.4ZM1129.2,181.2c0-12.6-7.6-17.8-20-17.8h-36.6v36h36.6c13,0,20-6,20-18.2Z"/>
          <path class="cls-2" d="M1222.8,276.2h-28v-140h28v140Z"/>
          <path class="cls-2" d="M1372.2,165l-26,12c-5-9.6-13-15.2-25.6-15.2-21,0-33,18.4-33,44.4s12.2,44.4,33.2,44.4,20-5.4,27.4-17.8l23.6,14c-9.6,19.8-26.4,31.6-51.8,31.6-36.6,0-61.2-28-61.2-72.2s25.6-72.2,62.2-72.2,42.4,12.8,51.2,31Z"/>
          <path class="cls-2" d="M1435.6,276.2h-28v-140h28v140Z"/>
          <path class="cls-2" d="M1603,276.2h-30.8l-11-31.2h-51.2l-11,31.2h-30l53.6-140h27.2l53.2,140ZM1551.6,218.4l-9-25.4c-2.8-8.2-5.6-16.6-7-21.8-1.4,5.2-4.2,13.6-7,21.8l-9,25.4h32Z"/>
          <path class="cls-2" d="M763.2,426c0,29.4-19.8,45.2-49.8,45.2h-63.6v-140h64.2c27.2,0,44.4,13,44.4,37s-5.6,21.6-14.8,27.2c11.2,5,19.6,15.2,19.6,30.6ZM730,370.4c0-8.8-5-13.4-17.2-13.4h-35.6v26.6h37c11.6,0,15.8-5.4,15.8-13.2ZM734.4,426.4c0-12-6.4-18-20-18h-37.2v36.2h37.2c13.6,0,20-7.2,20-18.2Z"/>
          <path class="cls-2" d="M910.6,471.2h-32.2l-25-50.4h-28.2v50.4h-28v-140h65.2c26.4,0,48.2,14.6,48.2,44.4s-9,34.2-26.8,41.2l26.8,54.4ZM881.8,376.2c0-12.6-7.6-17.8-20-17.8h-36.6v36h36.6c13,0,20-6,20-18.2Z"/>
          <path class="cls-2" d="M1066.4,471.2h-30.8l-11-31.2h-51.2l-11,31.2h-30l53.6-140h27.2l53.2,140ZM1015,413.4l-9-25.4c-2.8-8.2-5.6-16.6-7-21.8-1.4,5.2-4.2,13.6-7,21.8l-9,25.4h32Z"/>
          <path class="cls-2" d="M1192.4,331.2l-49.8,140h-27.2l-49.8-140h31l26.4,81c2.6,7.8,5.4,18,6.6,23,1.2-5.2,3.8-14.8,6.4-23l25.8-81h30.6Z"/>
          <path class="cls-2" d="M1332,401c0,45.2-25.4,72.4-61.8,72.4s-61.6-26.8-61.6-72,25.4-72.4,62-72.4,61.4,26.8,61.4,72ZM1303.2,401.4c0-28.4-13.6-44.6-33.2-44.6s-32.6,15.8-32.6,44.2,13.6,44.6,33.2,44.6,32.6-15.8,32.6-44.2Z"/>
        </g>
      </g>
    </g>
  </g>
</svg>